<?xml version="1.0" standalone="no"?>
<!DOCTYPE svg PUBLIC "-//W3C//DTD SVG 20010904//EN" "http://www.w3.org/TR/2001/REC-SVG-20010904/DTD/svg10.dtd">
<!-- Created using Karbon, part of Calligra: http://www.calligra.org/karbon -->
<svg xmlns="http://www.w3.org/2000/svg" xmlns:xlink="http://www.w3.org/1999/xlink" width="19.2pt" height="19.2pt">
<defs/>
<g id="layer0">
  <path id="shape0" transform="" fill="none" d="M0 0L24 0L24 24L0 24Z"/>
  <path id="shape1" transform="translate(2, 2)" fill="#ffffff" d="M10 0C4.48 0 0 4.48 0 10C0 15.52 4.48 20 10 20C15.52 20 20 15.52 20 10C20 4.48 15.52 0 10 0ZM11 17L9 17L9 15L11 15ZM13.07 9.25L12.17 10.17C11.45 10.9 11 11.5 11 13L9 13L9 12.5C9 11.4 9.45 10.4 10.17 9.67L11.41 8.41C11.78 8.05 12 7.55 12 7C12 5.9 11.1 5 10 5C8.9 5 8 5.9 8 7L6 7C6 4.79 7.79 3 10 3C12.21 3 14 4.79 14 7C14 7.88 13.64 8.68 13.07 9.25Z"/>
 </g>
</svg>
